<svg width="254" height="224" viewBox="0 0 254 224" fill="none" xmlns="http://www.w3.org/2000/svg">
<path fill-rule="evenodd" clip-rule="evenodd" d="M140.856 8C134.698 -2.66667 119.302 -2.66666 113.144 8L2.29235 200C-3.86607 210.667 3.83194 224 16.1488 224H237.851C250.168 224 257.866 210.667 251.708 200L140.856 8ZM133.928 44C130.849 38.6667 123.151 38.6667 120.072 44L36.9334 188C33.8542 193.333 37.7032 200 43.8616 200H210.138C216.297 200 220.146 193.333 217.067 188L133.928 44Z" fill="#000000"/>
<path fill-rule="evenodd" clip-rule="evenodd" d="M113.019 216C119.177 226.667 134.573 226.667 140.732 216L251.583 24C257.741 13.3333 250.043 2.08615e-07 237.726 2.08615e-07L16.0239 2.08615e-07C3.70706 2.08615e-07 -3.99094 13.3333 2.16748 24L113.019 216ZM119.947 180C123.026 185.333 130.724 185.333 133.803 180L216.942 36C220.021 30.6667 216.172 24 210.014 24L43.7367 24C37.5783 24 33.7293 30.6667 36.8085 36L119.947 180Z" fill="#000000"/>
<path fill-rule="evenodd" clip-rule="evenodd" d="M113.019 216C119.177 226.667 134.573 226.667 140.732 216L251.583 24C257.741 13.3333 250.043 2.08615e-07 237.726 2.08615e-07L16.0239 2.08615e-07C3.70706 2.08615e-07 -3.99094 13.3333 2.16748 24L113.019 216ZM119.947 180C123.026 185.333 130.724 185.333 133.803 180L216.942 36C220.021 30.6667 216.172 24 210.014 24L43.7367 24C37.5783 24 33.7293 30.6667 36.8085 36L119.947 180Z" fill="#000000"/>
<rect x="115" width="24" height="224" fill="#000000"/>
</svg>
