<?xml version="1.0" encoding="UTF-8"?>
<svg version="1.1" xmlns="http://www.w3.org/2000/svg" width="512" height="512">
<path d="M0 0 C1.67246083 -0.00373981 3.34491991 -0.00834265 5.01737624 -0.01373065 C9.59907264 -0.02593518 14.18069587 -0.02570318 18.7624048 -0.02334189 C23.70940226 -0.02293308 28.65637647 -0.03397904 33.60336304 -0.04345703 C43.29037174 -0.06005415 52.9773561 -0.065566 62.66437783 -0.06668179 C70.54066797 -0.06763289 78.41695009 -0.07174632 86.29323769 -0.07808304 C108.63618567 -0.09569211 130.97911446 -0.10492246 153.32206943 -0.10342209 C155.1279996 -0.10330222 155.1279996 -0.10330222 156.97041321 -0.10317993 C158.77855481 -0.10305729 158.77855481 -0.10305729 160.62322453 -0.10293217 C180.15507055 -0.10211942 199.68683942 -0.12125527 219.21866312 -0.14945666 C239.28578135 -0.17820174 259.35286199 -0.19199606 279.42000133 -0.19026911 C290.68133701 -0.18960576 301.94259181 -0.19507399 313.20390892 -0.21662521 C322.79268243 -0.23485837 332.3813384 -0.2391668 341.97012176 -0.22560637 C346.85896928 -0.21908747 351.74759146 -0.21892053 356.63641739 -0.23631287 C361.11926951 -0.25209637 365.6017186 -0.24912636 370.08456121 -0.2317446 C371.6989335 -0.22868629 373.31333627 -0.23226264 374.92767259 -0.24346475 C394.13685077 -0.36784163 410.32016371 4.98409492 424.59858704 18.26742554 C439.09142992 33.06963945 442.90869686 49.54802279 442.86601257 69.6688385 C442.86975239 71.34129933 442.87435523 73.01375841 442.87974322 74.68621475 C442.89194775 79.26791114 442.89171576 83.84953437 442.88935447 88.4312433 C442.88894565 93.37824076 442.89999161 98.32521497 442.9094696 103.27220154 C442.92606673 112.95921024 442.93157857 122.6461946 442.93269436 132.33321633 C442.93364547 140.20950647 442.93775889 148.08578859 442.94409561 155.96207619 C442.96170469 178.30502417 442.97093503 200.64795296 442.96943466 222.99090793 C442.9693148 224.7968381 442.9693148 224.7968381 442.9691925 226.63925171 C442.96911074 227.84467945 442.96902898 229.05010718 442.96894474 230.29206304 C442.96813199 249.82390905 442.98726785 269.35567792 443.01546924 288.88750162 C443.04421431 308.95461985 443.05800863 329.02170049 443.05628169 349.08883983 C443.05561834 360.35017551 443.06108656 371.61143032 443.08263779 382.87274742 C443.10087094 392.46152093 443.10517937 402.05017691 443.09161894 411.63896026 C443.08510004 416.52780778 443.08493311 421.41642996 443.10232544 426.30525589 C443.11810894 430.78810801 443.11513893 435.2705571 443.09775718 439.75339971 C443.09469886 441.367772 443.09827521 442.98217477 443.10947733 444.59651109 C443.2338542 463.80568927 437.88191765 479.98900221 424.59858704 494.26742554 C409.79637312 508.76026842 393.31798979 512.57753536 373.19717407 512.53485107 C371.52471324 512.53859089 369.85225416 512.54319373 368.17979783 512.54858172 C363.59810144 512.56078625 359.0164782 512.56055426 354.43476927 512.55819297 C349.48777181 512.55778416 344.54079761 512.56883011 339.59381104 512.57830811 C329.90680233 512.59490523 320.21981797 512.60041707 310.53279624 512.60153286 C302.65650611 512.60248397 294.78022399 512.6065974 286.90393639 512.61293411 C264.5609884 512.63054319 242.21805962 512.63977353 219.87510464 512.63827316 C218.06917447 512.6381533 218.06917447 512.6381533 216.22676086 512.63803101 C214.41861926 512.63790836 214.41861926 512.63790836 212.57394954 512.63778324 C193.04210353 512.63697049 173.51033466 512.65610635 153.97851095 512.68430774 C133.91139272 512.71305281 113.84431209 512.72684713 93.77717274 512.72512019 C82.51583707 512.72445684 71.25458226 512.72992506 59.99326515 512.75147629 C50.40449165 512.76970944 40.81583567 512.77401787 31.22705231 512.76045744 C26.33820479 512.75393854 21.44958261 512.75377161 16.56075668 512.77116394 C12.07790456 512.78694744 7.59545547 512.78397744 3.11261287 512.76659568 C1.49824058 512.76353736 -0.11616219 512.76711371 -1.73049852 512.77831583 C-20.9396767 512.9026927 -37.12298964 507.55075615 -51.40141296 494.26742554 C-65.89425585 479.46521162 -69.71152279 462.98682829 -69.6688385 442.86601257 C-69.67257831 441.19355174 -69.67718115 439.52109266 -69.68256915 437.84863633 C-69.69477368 433.26693994 -69.69454168 428.6853167 -69.6921804 424.10360777 C-69.69177158 419.15661031 -69.70281754 414.20963611 -69.71229553 409.26264954 C-69.72889265 399.57564083 -69.7344045 389.88865648 -69.73552029 380.20163474 C-69.73647139 372.32534461 -69.74058482 364.44906249 -69.74692154 356.57277489 C-69.76453062 334.2298269 -69.77376096 311.88689812 -69.77226059 289.54394314 C-69.77218068 288.3399897 -69.77210077 287.13603625 -69.77201843 285.89559937 C-69.77193667 284.69017163 -69.77185491 283.48474389 -69.77177067 282.24278804 C-69.77095792 262.71094203 -69.79009377 243.17917316 -69.81829517 223.64734945 C-69.84704024 203.58023122 -69.86083456 183.51315059 -69.85910761 163.44601125 C-69.85844426 152.18467557 -69.86391249 140.92342076 -69.88546371 129.66210365 C-69.90369687 120.07333015 -69.9080053 110.48467417 -69.89444487 100.89589081 C-69.88792597 96.00704329 -69.88775903 91.11842111 -69.90515137 86.22959518 C-69.92093487 81.74674307 -69.91796486 77.26429397 -69.9005831 72.78145137 C-69.89752479 71.16707908 -69.90110114 69.55267631 -69.91230325 67.93833999 C-70.03668013 48.7291618 -64.68474358 32.54584887 -51.40141296 18.26742554 C-36.59919905 3.77458265 -20.12081571 -0.04268429 0 0 Z " fill="#1F1F1F" transform="translate(69.40141296386719,-0.267425537109375)"/>
<path d="M0 0 C4.35699098 2.46622131 7.04335342 5.33670683 9.3125 9.875 C9.40885996 11.48914797 9.44167474 13.10726412 9.44392776 14.72428417 C9.44776891 15.75503447 9.45161005 16.78578476 9.4555676 17.84776992 C9.45470112 18.98889009 9.45383463 20.13001027 9.45294189 21.30570984 C9.45739858 23.11396192 9.45739858 23.11396192 9.4619453 24.95874435 C9.46914129 28.31559289 9.47180583 31.67239027 9.47254276 35.02924287 C9.47439035 38.64560483 9.48193628 42.26195563 9.48867798 45.87831116 C9.50227505 53.79163197 9.5082884 61.70494772 9.51268864 69.61827826 C9.51544924 74.55820622 9.5196863 79.49813222 9.52419281 84.43805885 C9.53638821 98.11117143 9.54668638 111.78428243 9.5500679 125.45740032 C9.55028747 126.33298208 9.55050703 127.20856383 9.55073325 128.11067836 C9.55095153 128.98837855 9.55116981 129.86607874 9.5513947 130.77037591 C9.55183817 132.54898433 9.55228473 134.32759275 9.55273438 136.10620117 C9.5529558 136.98845597 9.55317723 137.87071076 9.55340537 138.77970055 C9.55735256 153.07235801 9.57480294 167.36496446 9.5980939 181.65760221 C9.6218051 196.32639234 9.63426968 210.99515687 9.63543582 225.66396648 C9.63635281 233.90201488 9.64211102 242.13999685 9.66025543 250.37802696 C9.67565343 257.39396738 9.68077875 264.40982085 9.67251733 271.42577495 C9.66860948 275.00536758 9.66954676 278.58478512 9.68357468 282.16435623 C9.69864755 286.0461038 9.69045082 289.92760472 9.67999268 293.80937195 C9.69207728 295.5043218 9.69207728 295.5043218 9.70440602 297.23351306 C9.66252762 303.86678363 9.35454166 309.42270845 4.77734375 314.6171875 C-0.7274617 318.70003553 -4.02278856 319.02355254 -10.7711792 319.02217102 C-11.72420591 319.02584771 -12.67723261 319.0295244 -13.65913892 319.0333125 C-16.87269953 319.04438096 -20.08622784 319.04819852 -23.29980469 319.05200195 C-25.59575504 319.0582642 -27.89170438 319.06491078 -30.18765259 319.07191467 C-36.43980021 319.08934621 -42.69194018 319.09988221 -48.9441061 319.1081202 C-52.84747642 319.11326557 -56.75084433 319.11934149 -60.65421295 319.12563133 C-71.45958059 319.14250393 -82.26494527 319.15713898 -93.07032394 319.16438007 C-95.87500764 319.16629 -98.67969133 319.16821033 -101.484375 319.17016602 C-102.18147399 319.17064976 -102.87857298 319.1711335 -103.59679618 319.1716319 C-114.88968809 319.17993243 -126.18247407 319.20526917 -137.47531971 319.23774669 C-149.06708326 319.27081231 -160.65878751 319.28849557 -172.25059819 319.29202431 C-178.75993752 319.29437861 -185.26910949 319.30338844 -191.77840424 319.32848549 C-197.901519 319.35171162 -204.02435556 319.35602131 -210.1475029 319.34572411 C-212.39612374 319.34522731 -214.64475803 319.35158973 -216.89333725 319.36528015 C-219.96118945 319.38291497 -223.02803415 319.3759339 -226.09588623 319.36274719 C-227.43334715 319.37920106 -227.43334715 319.37920106 -228.79782748 319.39598733 C-234.25487748 319.33928498 -237.35717602 318.5052099 -241.6875 314.875 C-246.08643104 309.88161882 -247.04426337 306.96484773 -246.96875 300.4140625 C-246.41766315 295.43897287 -243.68052299 292.74980597 -240.0625 289.5625 C-235.94916218 286.63986523 -232.81050993 286.73013689 -227.90132141 286.73696899 C-227.08784105 286.73414771 -226.27436069 286.73132643 -225.43622941 286.72841966 C-222.69486284 286.72004892 -219.95353653 286.71873329 -217.2121582 286.71728516 C-215.25280137 286.71261869 -213.29344562 286.7074754 -211.33409119 286.70188904 C-207.10633254 286.69059316 -202.878581 286.68216612 -198.65081215 286.67576981 C-191.96552008 286.66510574 -185.28027891 286.64486462 -178.59501648 286.62265015 C-159.58167861 286.56067405 -140.56834332 286.50672041 -121.55493164 286.47363281 C-111.06036198 286.45528946 -100.56587714 286.42635566 -90.07136983 286.3856281 C-84.51611308 286.36455067 -78.96096329 286.3490998 -73.40566444 286.34682083 C-68.17799809 286.34467385 -62.95055428 286.32879917 -57.7229557 286.30243111 C-55.80535102 286.29523817 -53.88771938 286.29313712 -51.97010422 286.29653358 C-49.34933882 286.30043356 -46.72928234 286.28595671 -44.1085968 286.26699829 C-43.35216127 286.27252799 -42.59572574 286.27805768 -41.81636792 286.28375494 C-36.64518395 286.21931522 -33.19820199 285.22683817 -28.6875 282.875 C-24.498481 278.57574366 -23.56360441 275.13058663 -23.56000805 269.27658272 C-23.5570004 268.35270229 -23.55399275 267.42882185 -23.55089396 266.47694504 C-23.55351952 264.95974564 -23.55351952 264.95974564 -23.55619812 263.41189575 C-23.55302455 261.79603256 -23.55302455 261.79603256 -23.54978687 260.14752567 C-23.5437791 256.52558642 -23.54478757 252.90368192 -23.5456543 249.28173828 C-23.54262336 246.68993063 -23.53910209 244.09812351 -23.53512573 241.50631714 C-23.5270148 235.91879408 -23.52206964 230.33127557 -23.51883507 224.74374771 C-23.51333694 215.91206186 -23.49643822 207.0804146 -23.47749329 198.24874878 C-23.47113666 195.22702986 -23.46482822 192.20531085 -23.45851612 189.18359184 C-23.45693236 188.42844214 -23.4553486 187.67329244 -23.45371684 186.89525942 C-23.4357818 178.30013014 -23.41955427 169.70499814 -23.40454102 161.10986328 C-23.40316514 160.32417685 -23.40178927 159.53849042 -23.40037171 158.72899531 C-23.37843737 145.99424775 -23.36768421 133.25951014 -23.36017027 120.52474703 C-23.35210029 107.4503033 -23.32881466 94.37594484 -23.2922166 81.30154979 C-23.27018825 73.2369471 -23.26052793 65.1725197 -23.26671693 57.10788845 C-23.27026561 50.928653 -23.25303558 44.74963587 -23.22803879 38.57045364 C-23.22110528 36.03481478 -23.22102349 33.49914669 -23.22823906 30.96350861 C-23.23708543 27.50602235 -23.22150058 24.04948087 -23.19975281 20.59207153 C-23.21241661 19.0815643 -23.21241661 19.0815643 -23.22533625 17.54054177 C-23.15846726 11.80438274 -22.58066885 8.39388814 -18.6875 3.875 C-12.61421193 -1.47527758 -7.72899018 -2.357997 0 0 Z " fill="#E84545" transform="translate(406.6875,97.125)"/>
<path d="M0 0 C5.67476113 1.96434039 9.31400331 5.62800662 12 11 C12.10091897 13.18861965 12.13513445 15.38039613 12.14044189 17.57133484 C12.14341302 18.25414152 12.14638414 18.93694821 12.1494453 19.64044601 C12.15815053 21.93959019 12.15964209 24.23868242 12.16113281 26.5378418 C12.1657598 28.18193168 12.1707843 29.82602049 12.17617798 31.47010803 C12.18931796 35.94552308 12.19575038 40.42092311 12.20018864 44.89635444 C12.2031176 47.69215901 12.20722214 50.48795947 12.21169281 53.28376198 C12.22537374 62.0301746 12.23503672 70.77657783 12.2388947 79.52300042 C12.24337302 89.62072989 12.26090791 99.71832383 12.2898953 109.81601208 C12.31151785 117.61907246 12.32159934 125.42209473 12.32293582 133.22518474 C12.3239837 137.88621113 12.32988764 142.54711023 12.34775543 147.20810509 C12.36424537 151.59526784 12.36638715 155.98220777 12.35761642 160.36939049 C12.35684647 161.97740272 12.36118336 163.58542697 12.37107468 165.19340897 C12.38381318 167.39378552 12.37790767 169.59337517 12.36749268 171.79374695 C12.36895924 173.02358653 12.3704258 174.25342611 12.3719368 175.52053356 C11.74109439 181.42206033 9.68817821 186.16421783 5 190 C1.40568824 192.30466652 -1.67927927 192.2560517 -5.89450073 192.26742554 C-6.58788894 192.27195665 -7.28127714 192.27648776 -7.99567711 192.28115618 C-10.31863768 192.29381441 -12.64136423 192.29217892 -14.96435547 192.29052734 C-16.63006899 192.29651171 -18.29577973 192.30331704 -19.96148682 192.31088257 C-24.48631671 192.32855899 -29.01107098 192.33323863 -33.53593206 192.33451414 C-37.31327429 192.33641313 -41.0905989 192.34377064 -44.86793435 192.35085833 C-53.77996661 192.36714606 -62.69195847 192.37202693 -71.60400391 192.37060547 C-80.79718058 192.36940385 -89.99012255 192.3905088 -99.18323982 192.4220928 C-107.07635378 192.44824412 -114.96939104 192.45897325 -122.86254799 192.45769465 C-127.57664051 192.45718469 -132.29052446 192.46288676 -137.00457382 192.48405075 C-141.43860774 192.50341396 -145.87223374 192.50357085 -150.30628204 192.48901749 C-151.93245413 192.48692591 -153.55865161 192.49165108 -155.18478012 192.5037384 C-157.40750976 192.51918859 -159.62883239 192.5098861 -161.85153198 192.49447632 C-163.71590062 192.49611062 -163.71590062 192.49611062 -165.61793327 192.49777794 C-170.82767657 191.73099967 -173.89011006 189.25987507 -177.3125 185.375 C-180.62098774 180.71860985 -180.62082623 176.60468123 -180 171 C-177.50665497 166.01330993 -174.00649051 162.50324526 -169 160 C-167.21664768 159.90115123 -165.42959273 159.86657133 -163.64350891 159.86196899 C-162.50655075 159.85651566 -161.36959259 159.85106232 -160.19818115 159.84544373 C-158.94466858 159.8444014 -157.69115601 159.84335907 -156.3996582 159.84228516 C-154.3802235 159.8344859 -152.36078882 159.8266826 -150.34135473 159.81872725 C-148.1661882 159.81100521 -145.99102591 159.80562717 -143.81585121 159.80076981 C-139.28126269 159.79009434 -134.74674891 159.76984936 -130.21220398 159.74765015 C-117.31606481 159.68571505 -104.41992934 159.63175388 -91.52368164 159.59863281 C-84.40430261 159.58026791 -77.28504814 159.55130616 -70.1657607 159.5106281 C-66.39901728 159.48958463 -62.63243067 159.47410468 -58.86562538 159.47182083 C-55.31886284 159.46966799 -51.77242643 159.45373436 -48.22576332 159.42743111 C-46.31035856 159.41685211 -44.39489005 159.42098249 -42.47946167 159.4256134 C-36.23837428 159.3654667 -31.45681911 159.15400443 -26 156 C-21.85867711 151.64071274 -20.87612231 148.38192589 -20.86869812 142.4785614 C-20.86468994 141.33036926 -20.86068176 140.18217712 -20.85655212 138.99919128 C-20.85708084 137.7383522 -20.85760956 136.47751312 -20.8581543 135.1784668 C-20.85512237 133.8380217 -20.85160082 132.49757764 -20.84762573 131.15713501 C-20.83973859 128.26954216 -20.8345925 125.38196167 -20.83133507 122.49435997 C-20.82542284 117.92636209 -20.80888024 113.35844203 -20.78999329 108.79048157 C-20.78365592 107.22626405 -20.7773303 105.66204648 -20.77101612 104.09782887 C-20.76785031 103.31446427 -20.7646845 102.53109967 -20.76142275 101.72399676 C-20.71935598 91.08953052 -20.68637283 80.45510055 -20.67407227 69.82055664 C-20.66568959 62.64695298 -20.64319152 55.47354206 -20.6047166 48.30003482 C-20.5849629 44.50478742 -20.57254899 40.70982808 -20.57755089 36.91452599 C-20.58220049 33.34305327 -20.56837582 29.7721264 -20.54053879 26.2007637 C-20.53034573 24.26966491 -20.53987393 22.33849338 -20.55003357 20.40739441 C-20.4809721 14.0004095 -20.42367477 9.81392541 -16 5 C-10.58420856 0.22894564 -7.09115125 -0.64682799 0 0 Z " fill="#FA7A05" transform="translate(340,160)"/>
<path d="M0 0 C4.35699098 2.46622131 7.04335342 5.33670683 9.3125 9.875 C9.41518437 12.88282312 9.45586379 15.86774613 9.45294189 18.87602234 C9.45591302 19.82017638 9.45888414 20.76433041 9.4619453 21.73709518 C9.47066031 24.92068621 9.47214291 28.10423976 9.47363281 31.2878418 C9.47825906 33.56246522 9.48328346 35.83708786 9.48867798 38.11170959 C9.50182396 44.3060782 9.5082514 50.50043596 9.51268864 56.69481635 C9.51561627 60.56268253 9.51972051 64.43054573 9.52419281 68.29841042 C9.53630578 79.00684236 9.54668604 89.71527066 9.5500679 100.42370892 C9.55039725 101.45219087 9.55039725 101.45219087 9.55073325 102.50145023 C9.55106067 103.53240551 9.55106067 103.53240551 9.5513947 104.58418816 C9.55183817 105.9769425 9.55228473 107.36969684 9.55273438 108.76245117 C9.5529558 109.45330662 9.55317723 110.14416207 9.55340537 110.85595254 C9.55735147 122.04468385 9.57479853 133.23334996 9.5980939 144.4220561 C9.62181655 155.90873467 9.63401231 167.39537126 9.63543582 178.88207561 C9.63648488 185.33161062 9.64241403 191.78105374 9.66025543 198.23056602 C9.67671426 204.29865899 9.67890216 210.3665908 9.67011642 216.4346981 C9.66934484 218.66193065 9.67370472 220.88917179 9.68357468 223.1163826 C9.69626074 226.15746745 9.69043521 229.19797869 9.67999268 232.23905945 C9.68804908 233.12000532 9.69610548 234.0009512 9.70440602 234.9085924 C9.65644835 240.88235097 8.87912454 245.96224034 4.77734375 250.6171875 C-0.93631645 254.85494059 -4.60374464 255.65966213 -11.6875 254.875 C-16.67419007 252.38165497 -20.18425474 248.88149051 -22.6875 243.875 C-22.79239572 240.83975341 -22.8352925 237.82709863 -22.83467102 234.7913208 C-22.83834771 233.83829409 -22.8420244 232.88526739 -22.8458125 231.90336108 C-22.85688096 228.68980047 -22.86069852 225.47627216 -22.86450195 222.26269531 C-22.8707642 219.96674496 -22.87741078 217.67079562 -22.88441467 215.37484741 C-22.90184621 209.12269979 -22.91238221 202.87055982 -22.9206202 196.6183939 C-22.92576557 192.71502358 -22.93184149 188.81165567 -22.93813133 184.90828705 C-22.95500393 174.10291941 -22.96963898 163.29755473 -22.97688007 152.49217606 C-22.97879 149.68749236 -22.98071033 146.88280867 -22.98266602 144.078125 C-22.98314976 143.38102601 -22.9836335 142.68392702 -22.9841319 141.96570382 C-22.99243243 130.67281191 -23.01776917 119.38002593 -23.05024669 108.08718029 C-23.08331231 96.49541674 -23.10099557 84.90371249 -23.10452431 73.31190181 C-23.10687861 66.80256248 -23.11588844 60.29339051 -23.14098549 53.78409576 C-23.16421162 47.660981 -23.16852131 41.53814444 -23.15822411 35.4149971 C-23.15772731 33.16637626 -23.16408973 30.91774197 -23.17778015 28.66916275 C-23.19541497 25.60131055 -23.1884339 22.53446585 -23.17524719 19.46661377 C-23.18621644 18.57497316 -23.19718568 17.68333254 -23.20848733 16.76467252 C-23.15178498 11.30762252 -22.3177099 8.20532398 -18.6875 3.875 C-12.61421193 -1.47527758 -7.72899018 -2.357997 0 0 Z " fill="#407FE8" transform="translate(118.6875,161.125)"/>
<path d="M0 0 C0.94415404 -0.00297112 1.88830807 -0.00594224 2.86107284 -0.0090034 C6.04466387 -0.01771842 9.22821742 -0.01920102 12.41181946 -0.02069092 C14.68644288 -0.02531717 16.96106552 -0.03034156 19.23568726 -0.03573608 C25.43005587 -0.04888207 31.62441363 -0.0553095 37.81879401 -0.05974674 C41.6866602 -0.06267437 45.55452339 -0.06677862 49.42238808 -0.07125092 C60.13082002 -0.08336389 70.83924832 -0.09374415 81.54768658 -0.09712601 C82.23334121 -0.09734557 82.91899584 -0.09756514 83.62542789 -0.09779136 C84.31273141 -0.09800964 85.00003493 -0.09822791 85.70816582 -0.09845281 C87.10092016 -0.09889627 88.4936745 -0.09934284 89.88642883 -0.09979248 C90.92271201 -0.10012463 90.92271201 -0.10012463 91.9799302 -0.10046348 C103.16866152 -0.10440958 114.35732762 -0.12185663 125.54603376 -0.145152 C137.03271234 -0.16887466 148.51934892 -0.18107042 160.00605327 -0.18249393 C166.45558828 -0.18354299 172.9050314 -0.18947214 179.35454369 -0.20731354 C185.42263665 -0.22377236 191.49056846 -0.22596027 197.55867577 -0.21717453 C199.78590831 -0.21640294 202.01314945 -0.22076282 204.24036026 -0.23063278 C207.28144511 -0.24331885 210.32195635 -0.23749331 213.36303711 -0.22705078 C214.68445592 -0.23913539 214.68445592 -0.23913539 216.03257006 -0.25146413 C222.00632863 -0.20350646 227.086218 0.57381735 231.74116516 4.67559814 C235.47875562 9.71490115 236.61512585 12.84203821 235.99897766 19.14044189 C234.20447282 25.02242999 231.83036495 27.64539577 226.99897766 31.14044189 C223.58401678 32.84792234 219.67314253 32.28838222 215.91529846 32.28761292 C214.96227175 32.2912896 214.00924505 32.29496629 213.02733874 32.29875439 C209.81377813 32.30982285 206.60024982 32.31364042 203.38667297 32.31744385 C201.09072262 32.32370609 198.79477329 32.33035267 196.49882507 32.33735657 C190.24667745 32.3547881 183.99453748 32.3653241 177.74237156 32.3735621 C173.83900125 32.37870746 169.93563333 32.38478338 166.03226471 32.39107323 C155.22689707 32.40794583 144.42153239 32.42258087 133.61615372 32.42982197 C130.81147002 32.43173189 128.00678633 32.43365222 125.20210266 32.43560791 C124.50500367 32.43609165 123.80790468 32.43657539 123.08968148 32.43707379 C111.79678958 32.44537432 100.50400359 32.47071107 89.21115795 32.50318859 C77.6193944 32.5362542 66.02769015 32.55393747 54.43587947 32.55746621 C47.92654014 32.5598205 41.41736817 32.56883033 34.90807343 32.59392738 C28.78495866 32.61715352 22.6621221 32.6214632 16.53897476 32.611166 C14.29035392 32.61066921 12.04171963 32.61703163 9.79314041 32.63072205 C6.72528821 32.64835687 3.65844351 32.64137579 0.59059143 32.62818909 C-0.30104918 32.63915833 -1.1926898 32.65012758 -2.11134982 32.66142923 C-7.56839982 32.60472687 -10.67069836 31.77065179 -15.00102234 28.14044189 C-19.39995338 23.14706072 -20.35778571 20.23028962 -20.28227234 13.67950439 C-19.73118549 8.70441476 -16.99404533 6.01524787 -13.37602234 2.82794189 C-8.96246375 -0.30800763 -5.26353161 -0.00511239 0 0 Z " fill="#407FE8" transform="translate(116.00102233886719,95.85955810546875)"/>
<path d="M0 0 C4.98669007 2.49334503 8.49675474 5.99350949 11 11 C11.10008284 12.40539659 11.13937217 13.81537009 11.14717102 15.2243042 C11.15790398 16.55327225 11.15790398 16.55327225 11.16885376 17.90908813 C11.17154266 18.8836496 11.17423157 19.85821106 11.17700195 20.86230469 C11.18357315 21.88683746 11.19014435 22.91137024 11.19691467 23.96694946 C11.21667818 27.36859199 11.22831727 30.77019031 11.23828125 34.171875 C11.24235678 35.33200356 11.2464323 36.49213211 11.25063133 37.68741608 C11.2715054 43.82806725 11.28580117 49.96869599 11.29516602 56.109375 C11.30623135 62.45600303 11.34062927 68.80228054 11.38033772 75.14878464 C11.4064697 80.02497006 11.41485485 84.90107157 11.41844749 89.77732086 C11.42332251 92.11689877 11.43496238 94.4564727 11.45348549 96.79598236 C11.47780273 100.0709772 11.47692503 103.34505992 11.4699707 106.62011719 C11.48918579 108.069814 11.48918579 108.069814 11.50878906 109.54879761 C11.45521056 116.47204191 9.98570039 119.51668287 5.5 124.75 C2.35252045 127.37289963 -0.39897091 128.24973217 -4.46481323 128.26742554 C-5.35354126 128.27595551 -6.24226929 128.28448547 -7.15792847 128.29327393 C-8.12529938 128.29236755 -9.09267029 128.29146118 -10.08935547 128.29052734 C-11.1141803 128.29724457 -12.13900513 128.30396179 -13.19488525 128.31088257 C-16.58570187 128.32989418 -19.97632089 128.33378836 -23.3671875 128.3359375 C-25.72364382 128.34236312 -28.08009933 128.3490913 -30.43655396 128.35610962 C-35.37780609 128.36809024 -40.31898827 128.37178962 -45.26025391 128.37060547 C-51.59115723 128.37040222 -57.92161198 128.39770789 -64.25240898 128.43214989 C-69.12002624 128.45438959 -73.98753504 128.4584439 -78.85519791 128.45738602 C-81.1891853 128.45974625 -83.52317549 128.46859343 -85.85711288 128.48405075 C-89.12234647 128.50365112 -92.38660613 128.49789546 -95.65185547 128.48583984 C-96.61517792 128.49707886 -97.57850037 128.50831787 -98.5710144 128.51989746 C-104.22769102 128.46683905 -107.53308636 127.81581733 -112 124 C-116.39893104 119.00661882 -117.35676337 116.08984773 -117.28125 109.5390625 C-116.73016315 104.56397287 -113.99302299 101.87480597 -110.375 98.6875 C-106.42014416 95.87747085 -104.13541708 95.86747337 -99.2746582 95.84228516 C-98.58335312 95.83720444 -97.89204803 95.83212372 -97.17979431 95.82688904 C-95.67600591 95.81617788 -94.17220149 95.80756063 -92.66839027 95.80076981 C-90.28447277 95.78898186 -87.90073652 95.76952712 -85.51689148 95.74765015 C-78.73796673 95.68604678 -71.95905831 95.63208165 -65.17993164 95.59863281 C-61.03423903 95.57762632 -56.88887333 95.54227015 -52.74336815 95.49787521 C-51.16664683 95.48375631 -49.58986764 95.47500209 -48.01308632 95.47182083 C-45.79915084 95.46688337 -43.58607392 95.44365263 -41.37231445 95.41650391 C-40.11481888 95.40841705 -38.8573233 95.4003302 -37.5617218 95.39199829 C-32.29351794 94.81218689 -28.35828833 93.42977719 -24.625 89.5 C-21.87874381 85.27499047 -21.8716805 81.99859543 -21.8581543 77.0534668 C-21.85294266 75.99925034 -21.85294266 75.99925034 -21.84762573 74.92373657 C-21.84027745 73.39813209 -21.83492712 71.87251698 -21.83133507 70.34689903 C-21.82416043 67.9295679 -21.80848618 65.51243867 -21.78999329 63.09516907 C-21.73757279 56.22240985 -21.68955916 49.34976146 -21.67407227 42.47680664 C-21.66397557 38.27154593 -21.63460904 34.06679389 -21.59275246 29.86173439 C-21.5804617 28.26185775 -21.57531769 26.66190921 -21.57755089 25.06198692 C-21.57991114 22.81901389 -21.5576856 20.57749311 -21.5300293 18.3347168 C-21.52122993 16.42301949 -21.52122993 16.42301949 -21.51225281 14.47270203 C-20.73566226 9.20798206 -18.30371122 6.1485075 -14.375 2.6875 C-9.71860985 -0.62098774 -5.60468123 -0.62082623 0 0 Z " fill="#49C93E" transform="translate(277,160)"/>
</svg>
