<?xml version="1.0" encoding="UTF-8"?>
<svg version="1.1" xmlns="http://www.w3.org/2000/svg" width="944" height="729">
<path d="M0 0 C4.03654111 1.9828623 6.6500056 4.16579861 9 8 C10.02593983 11.0778195 10.22802023 13.48442889 10.39453125 16.71484375 C11.22225325 31.12285236 12.48753293 44.98704032 16 59 C16.17370117 59.71091797 16.34740234 60.42183594 16.52636719 61.15429688 C28.25282757 108.01678735 60.37343848 148.8011698 101.4375 173.6875 C149.96193173 202.28540535 206.47930765 210.56331383 261.15283203 196.53564453 C285.9807088 189.79751661 309.24097992 178.77218912 329.71875 163.18359375 C340.97850665 154.67280986 340.97850665 154.67280986 347.04296875 154.6953125 C352.05864018 155.47619548 355.56559085 157.20836266 358.875 161 C362.02683075 165.44964341 362.36485324 168.61841478 362 174 C359.73418305 180.21301394 355.17118062 184.04311556 350.5 188.5 C316.43673963 221.85311595 295.40873767 268.31550611 294.75854492 316.2434082 C294.70105136 336.05240413 297.04807143 355.07633271 303 374 C303.35505615 375.13501953 303.35505615 375.13501953 303.71728516 376.29296875 C319.24430492 424.58558732 354.61577375 463.05721879 399.07714844 486.53613281 C418.47955088 496.25354052 439.49129041 502.77499779 460.90625 506.1640625 C464.5776475 507.15608152 467.02595837 508.64700824 470 511 C470.33 511.99 470.66 512.98 471 514 C387.18 514 303.36 514 217 514 C217 503.11 217 492.22 217 481 C212.80640107 434.40445638 196.32135157 389.37049968 165 354 C164.32195313 353.21367187 163.64390625 352.42734375 162.9453125 351.6171875 C160.67579565 349.03176721 158.35390187 346.50890613 156 344 C155.50935059 343.47535156 155.01870117 342.95070313 154.51318359 342.41015625 C145.45885258 332.80984935 135.71139319 324.68865595 125 317 C124.1025708 316.34354492 124.1025708 316.34354492 123.18701172 315.67382812 C94.02987724 294.47765778 58.68013878 281.39927467 23 277 C22.30511475 276.9079126 21.61022949 276.8158252 20.89428711 276.72094727 C-37.01257844 269.89285728 -96.4490429 286.51524879 -142.4375 322.14453125 C-146.38918585 325.27260037 -150.16437187 328.56783658 -153.8515625 332.00390625 C-155.81040872 333.82385246 -157.82295875 335.53717373 -159.875 337.25 C-169.83058333 345.96113541 -178.26563623 356.31411743 -186 367 C-186.77601563 368.05703125 -187.55203125 369.1140625 -188.3515625 370.203125 C-219.17265541 413.51310921 -228 462.04254953 -228 514 C-308.85 514 -389.7 514 -473 514 C-472 510 -472 510 -470.12109375 508.41796875 C-465.58735762 506.35821128 -460.90604603 505.40947035 -456.0625 504.3125 C-425.42150414 496.9612632 -396.96263509 483.69693084 -373 463 C-372.22011719 462.3296875 -371.44023437 461.659375 -370.63671875 460.96875 C-368.04738926 458.68914892 -365.51666979 456.35960622 -363 454 C-362.50097168 453.5349707 -362.00194336 453.06994141 -361.48779297 452.59082031 C-329.62142097 422.65782536 -307.55016284 377.6955666 -305.87524414 333.72485352 C-304.73458411 280.64685074 -320.53065515 232.14023229 -357.63769531 193.28515625 C-361.74701727 189.07619964 -365.93291751 184.94334868 -370.21875 180.9140625 C-373.89467561 176.96405471 -374.446189 173.56828159 -374.31640625 168.31640625 C-373.66648883 163.55836886 -371.47138398 160.26118627 -367.8125 157.125 C-362.53164636 155.01265854 -358.09284305 154.26897188 -352.65625 156.16796875 C-348.67237457 158.00421109 -345.3332862 160.51731727 -341.875 163.1875 C-335.15211585 168.23174064 -328.29314713 172.80497507 -321 177 C-320.39559082 177.35271973 -319.79118164 177.70543945 -319.16845703 178.06884766 C-272.71320051 204.92782917 -216.79868375 209.89055228 -165.3125 196.75 C-142.77367891 190.63429786 -120.87999067 180.83100312 -102 167 C-100.95972656 166.24332031 -99.91945313 165.48664063 -98.84765625 164.70703125 C-59.74046504 135.71970899 -32.17409762 92.86416409 -24.37011719 44.56640625 C-23.06376701 35.50812586 -22.28268929 26.36001074 -21.80078125 17.22265625 C-21.47673036 11.39694137 -21.13963166 7.48460096 -17 3 C-11.56728647 -0.88986029 -6.47434448 -0.79832703 0 0 Z " fill="#032B42" transform="translate(473,4)"/>
<path d="M0 0 C1.28477486 -0.00845947 1.28477486 -0.00845947 2.59550476 -0.01708984 C3.99281326 -0.01101715 3.99281326 -0.01101715 5.41835022 -0.00482178 C6.89947548 -0.01007874 6.89947548 -0.01007874 8.41052246 -0.01544189 C11.67630533 -0.02424813 14.94187176 -0.01841343 18.20765686 -0.01165771 C20.47682741 -0.01300479 22.74599768 -0.01494568 25.01516724 -0.01745605 C29.77231085 -0.02040591 34.52937939 -0.01611447 39.28651428 -0.0067749 C45.38422347 0.00461299 51.48175648 -0.0019366 57.57945919 -0.01391983 C62.26602505 -0.02114766 66.95254917 -0.01884612 71.63911629 -0.01366425 C73.88739098 -0.01232997 76.13566947 -0.01396769 78.38393974 -0.01862335 C81.52702239 -0.02370293 84.66982004 -0.01595768 87.81288147 -0.00482178 C89.20715363 -0.01089447 89.20715363 -0.01089447 90.6295929 -0.01708984 C96.15683069 0.01918428 100.34216169 0.28637609 104.72914124 3.97808838 C105.38334045 4.65436279 106.03753967 5.33063721 106.71156311 6.02740479 C107.43988342 6.76990479 108.16820374 7.51240479 108.91859436 8.27740479 C110.03814514 9.44142822 110.03814514 9.44142822 111.18031311 10.62896729 C115.52563879 15.10187593 119.75665834 19.40972913 124.68031311 23.25396729 C126.07591356 26.04516819 125.89839599 28.4560242 125.99671936 31.57427979 C126.05956116 33.45953369 126.05956116 33.45953369 126.12367249 35.38287354 C126.16298889 36.70158447 126.2023053 38.02029541 126.24281311 39.37896729 C126.28600823 40.71882479 126.32962284 42.05866885 126.37367249 43.39849854 C126.48002292 46.68354543 126.58205119 49.96867009 126.68031311 53.25396729 C127.2506427 53.55166016 127.82097229 53.84935303 128.40858459 54.15606689 C130.97933673 55.49927898 133.54858963 56.84533375 136.11781311 58.19146729 C137.01564514 58.6600415 137.91347717 59.12861572 138.83851624 59.61138916 C139.69252014 60.05933838 140.54652405 60.5072876 141.42640686 60.96881104 C142.21716614 61.38251953 143.00792542 61.79622803 143.82264709 62.22247314 C145.68031311 63.25396729 145.68031311 63.25396729 146.68031311 64.25396729 C146.80935396 65.62241445 146.87134109 66.99729141 146.90492249 68.37139893 C146.93869995 69.68395409 146.93869995 69.68395409 146.97315979 71.02302551 C147.04413178 75.05394113 147.10175884 79.08466543 147.14027405 83.11602783 C147.16681285 85.2373521 147.20766223 87.35854906 147.26332092 89.47930908 C147.34276365 92.54144339 147.37564127 95.6011073 147.39906311 98.66412354 C147.43205505 99.60401627 147.465047 100.543909 147.4990387 101.51228333 C147.48426821 106.42178843 146.99285945 109.49924972 143.76039124 113.29083252 C143.14358207 113.87826359 142.5267729 114.46569466 141.89127254 115.07092667 C139.62050223 117.24130797 139.62050223 117.24130797 137.57585239 119.78802299 C133.2255664 124.79642084 130.04756128 127.85021689 123.28344727 128.46324158 C120.85067993 128.49496418 118.41680122 128.47233281 115.98475647 128.40509033 C114.63516441 128.40390409 113.28556246 128.40712748 111.93598938 128.41438293 C108.30099869 128.42147296 104.66931372 128.36715165 101.03501964 128.30083823 C97.22532747 128.24170924 93.41557987 128.23908375 89.60549927 128.22999573 C83.21912934 128.20708529 76.83396944 128.14830288 70.44813538 128.06329346 C61.43100545 127.9432783 52.41428962 127.88608581 43.39650905 127.84242952 C31.32667106 127.78106416 19.25656568 127.70077224 7.18748474 127.55000877 C5.25430763 127.52670235 3.32107638 127.50803413 1.3878479 127.48947144 C0.24818573 127.47364517 -0.89147644 127.45781891 -2.06567383 127.44151306 C-3.06204896 127.42944667 -4.05842409 127.41738028 -5.08499241 127.40494823 C-7.31968689 127.25396729 -7.31968689 127.25396729 -8.31968689 126.25396729 C-8.41568825 124.64707529 -8.44156578 123.03594959 -8.43994141 121.42619324 C-8.44131607 120.38146347 -8.44269073 119.3367337 -8.44410706 118.26034546 C-8.44051178 117.10444916 -8.4369165 115.94855286 -8.43321228 114.75762939 C-8.43335831 113.54804062 -8.43350433 112.33845184 -8.43365479 111.09220886 C-8.43307582 107.76590378 -8.42804662 104.4396601 -8.42108083 101.11336589 C-8.41484667 97.64066799 -8.41424344 94.16796935 -8.41305542 90.69526672 C-8.40994229 84.11500536 -8.40172914 77.53476053 -8.39170593 70.95450646 C-8.38054423 63.46490617 -8.3750342 55.97530511 -8.3700105 48.48569858 C-8.35954651 33.07511189 -8.34194742 17.66454172 -8.31968689 2.25396729 C-5.41375275 0.60091756 -3.33463325 0.00338878 0 0 Z M26.68031311 22.25396729 C26.68031311 32.81396729 26.68031311 43.37396729 26.68031311 54.25396729 C50.44031311 54.25396729 74.20031311 54.25396729 98.68031311 54.25396729 C100.48821004 36.07493601 100.48821004 36.07493601 95.49281311 29.31646729 C94.25193573 28.25942359 92.978014 27.24042076 91.68031311 26.25396729 C91.08919739 25.40810059 90.49808167 24.56223389 89.88905334 23.69073486 C86.31024348 20.1151771 81.93023602 20.67341822 77.14399719 20.66183472 C75.8823877 20.68450409 74.6207782 20.70717346 73.32093811 20.73052979 C72.02081787 20.73523285 70.72069763 20.73993591 69.38117981 20.74478149 C66.63726595 20.75543335 63.89417242 20.78206654 61.15052795 20.82183838 C57.62740871 20.87290548 54.10475867 20.89788502 50.5813179 20.91277504 C44.76423917 20.93833883 38.94708501 20.98089841 33.13050842 21.06109619 C31.58426788 21.08038681 31.58426788 21.08038681 30.00679016 21.10006714 C27.71990208 20.99474816 27.71990208 20.99474816 26.68031311 22.25396729 Z M26.68031311 67.25396729 C26.65566536 72.78985262 26.63747815 78.32570629 26.62538147 83.8616333 C26.62034067 85.74640458 26.61350813 87.63117193 26.60487366 89.51593018 C26.59279694 92.21898364 26.58708243 94.92198559 26.58265686 97.62506104 C26.57749557 98.47297714 26.57233429 99.32089325 26.5670166 100.19450378 C26.56682116 102.21467797 26.618251 104.23474662 26.68031311 106.25396729 C28.58159257 108.15524674 32.03666664 107.47088925 34.62757874 107.51031494 C35.71801987 107.53221893 35.71801987 107.53221893 36.83049011 107.55456543 C43.56082695 107.68091807 50.29236747 107.74940457 57.02364349 107.80240822 C61.54517273 107.83810611 66.06491326 107.89122955 70.58558655 107.987854 C74.95711352 108.08101185 79.32706051 108.1293834 83.69952393 108.14680099 C85.36136246 108.16084489 87.02314918 108.1903713 88.68441772 108.23610306 C99.82521702 108.60707759 99.82521702 108.60707759 109.21717834 103.09356689 C112.19517633 99.43712855 113.78713205 96.74312473 113.55921936 91.90631104 C113.5157135 90.25792236 113.5157135 90.25792236 113.47132874 88.57623291 C113.39591858 87.45926025 113.32050842 86.3422876 113.24281311 85.19146729 C113.20220764 84.03968994 113.16160217 82.8879126 113.11976624 81.70123291 C113.01443731 78.88075839 112.85916183 76.07043576 112.68031311 73.25396729 C103.47789977 66.61859944 95.04522457 66.45162268 84.19984436 66.66802979 C82.53406312 66.67924383 80.86826186 66.68777356 79.20245361 66.6937561 C74.85368081 66.71648135 70.50614274 66.77525891 66.15785217 66.84197998 C61.70652461 66.90375867 57.25499423 66.93084645 52.80335999 66.96099854 C44.09511598 67.02502227 35.38786886 67.12719799 26.68031311 67.25396729 Z " fill="#072F45" transform="translate(64.31968688964844,601.7460327148438)"/>
<path d="M0 0 C0.99955719 -0.00563965 1.99911438 -0.0112793 3.02896118 -0.01708984 C4.66471352 -0.01101715 4.66471352 -0.01101715 6.33351135 -0.00482178 C7.48673889 -0.00832642 8.63996643 -0.01183105 9.82814026 -0.01544189 C13.64582818 -0.02425481 17.46333126 -0.01841108 21.28102112 -0.01165771 C23.9313378 -0.01300458 26.58164884 -0.01494218 29.23196411 -0.01745605 C34.78943387 -0.02109385 40.34685045 -0.01630206 45.90431213 -0.0067749 C52.3242963 0.00410397 58.74415337 0.0005875 65.16413444 -0.01042771 C70.6801822 -0.01951232 76.19619175 -0.02077997 81.71224457 -0.01555037 C85.00492891 -0.01243643 88.29754061 -0.01279355 91.59022331 -0.01862335 C95.26255274 -0.02369771 98.93463765 -0.01596494 102.60694885 -0.00482178 C103.69542618 -0.00887024 104.7839035 -0.0129187 105.90536499 -0.01708984 C106.907742 -0.0114502 107.91011902 -0.00581055 108.94287109 0 C110.24448512 0.00113108 110.24448512 0.00113108 111.57239437 0.002285 C122.26181923 1.09479375 131.13897171 12.8239285 138.03492737 20.25396729 C140.31737152 24.81885559 139.43009752 31.42658422 139.49488831 36.49176025 C139.52140604 38.07279909 139.56223384 39.65366792 139.61793518 41.23394775 C140.13337607 56.0420057 140.13337607 56.0420057 135.81617737 61.04693604 C134.59113858 62.15631127 133.33263072 63.23054193 132.03492737 64.25396729 C131.14805237 65.10345947 130.26117737 65.95295166 129.34742737 66.82818604 C127.79050568 68.25098102 126.22787393 69.66754991 124.65992737 71.07818604 C122.79257437 73.08436555 122.79257437 73.08436555 123.18336487 75.35968018 C124.36683307 79.382047 126.17545055 82.98897392 128.03492737 86.73834229 C128.84787443 88.41260445 129.66035992 90.0870908 130.47242737 91.76177979 C131.75072374 94.38209128 133.03306821 97.00020249 134.32398987 99.61431885 C135.57311712 102.14993222 136.80498254 104.69338061 138.03492737 107.23834229 C138.6130719 108.39194244 138.6130719 108.39194244 139.20289612 109.56884766 C141.66139051 114.69121946 143.09554927 119.52084014 143.03492737 125.25396729 C142.70492737 125.91396729 142.37492737 126.57396729 142.03492737 127.25396729 C131.14492737 127.25396729 120.25492737 127.25396729 109.03492737 127.25396729 C106.10174879 121.38761013 103.24639556 115.66592217 100.73805237 109.63677979 C100.31939911 108.64011795 100.31939911 108.64011795 99.89228821 107.62332153 C99.31267845 106.24113605 98.734737 104.85824979 98.15846252 103.47467041 C97.2770216 101.3600005 96.38875101 99.2482899 95.49977112 97.13677979 C94.93296094 95.78278214 94.36654029 94.42862135 93.80055237 93.07427979 C93.29298401 91.86014404 92.78541565 90.6460083 92.26246643 89.39508057 C91.03492737 86.25396729 91.03492737 86.25396729 90.03492737 82.25396729 C68.91492737 82.25396729 47.79492737 82.25396729 26.03492737 82.25396729 C26.07453399 96.68941065 26.07453399 96.68941065 26.12501526 111.12481689 C26.12793432 112.92698101 26.1304829 114.72914578 26.13258362 116.53131104 C26.13769958 117.47623413 26.14281555 118.42115723 26.14808655 119.39471436 C26.14826782 120.73451355 26.14826782 120.73451355 26.14845276 122.10137939 C26.15067337 122.88081406 26.15289398 123.66024872 26.15518188 124.46330261 C26.03492737 126.25396729 26.03492737 126.25396729 25.03492737 127.25396729 C13.81492737 127.25396729 2.59492737 127.25396729 -8.96507263 127.25396729 C-8.96507263 86.00396729 -8.96507263 44.75396729 -8.96507263 2.25396729 C-5.18185769 0.36235981 -3.9845387 0.00346399 0 0 Z M26.03492737 22.25396729 C25.94621464 25.28374532 25.91973386 28.29063751 25.93727112 31.32037354 C25.93868607 32.22899643 25.94010101 33.13761932 25.94155884 34.07377625 C25.94717544 36.98803949 25.95973072 39.90222709 25.97242737 42.81646729 C25.97744023 44.7871693 25.98200351 46.75787252 25.98609924 48.72857666 C25.99715026 53.57040287 26.01442599 58.41217224 26.03492737 63.25396729 C34.30218838 63.51034391 42.56775434 63.70502234 50.83802414 63.82390118 C54.6796765 63.88099908 58.51858493 63.95824282 62.35865784 64.08380127 C66.07422965 64.20451002 69.7871871 64.26932728 73.50457001 64.29761696 C74.91294243 64.31773753 76.32119269 64.35703065 77.7284317 64.41699791 C85.20044016 64.72235215 90.59874121 64.26814684 96.32100296 59.34091663 C101.46734829 54.46331957 104.16124362 51.42983284 104.47901917 44.08233643 C104.91491395 35.02753084 104.91491395 35.02753084 100.72242737 27.31646729 C99.52697627 26.25635028 98.2990606 25.23116663 97.03492737 24.25396729 C96.63585175 23.7372345 96.23677612 23.22050171 95.8256073 22.68811035 C93.14029518 20.53746261 90.96209313 20.8870157 87.55982971 20.89752197 C86.9075087 20.8954776 86.25518768 20.89343323 85.58309937 20.8913269 C83.42873531 20.88832065 81.27513782 20.90678713 79.12086487 20.92584229 C77.62539357 20.92889975 76.12991943 20.93077597 74.63444519 20.93151855 C71.50220321 20.93612029 68.37021852 20.95054327 65.23805237 20.97271729 C61.21492022 21.00104848 57.19199036 21.01193373 53.16876793 21.01639938 C50.08221905 21.02054708 46.9957114 21.03035829 43.9091835 21.04227448 C42.4251552 21.04798692 40.9411229 21.05274239 39.45708847 21.05654144 C37.38839929 21.06338362 35.31987339 21.07700474 33.25123596 21.09283447 C31.4827681 21.10307648 31.4827681 21.10307648 29.67857361 21.11352539 C27.11155303 20.95447515 27.11155303 20.95447515 26.03492737 22.25396729 Z " fill="#093046" transform="translate(233.96507263183594,601.7460327148438)"/>
<path d="M0 0 C11.22 0 22.44 0 34 0 C35 1 35 1 35.12025452 3.05641174 C35.11803391 3.96020065 35.11581329 4.86398956 35.11352539 5.79516602 C35.11340454 6.83048462 35.11328369 7.86580322 35.11315918 8.93249512 C35.10804321 10.02856079 35.10292725 11.12462646 35.09765625 12.25390625 C35.09664917 13.25546753 35.09564209 14.25702881 35.09460449 15.28894043 C35.08935429 19.04680519 35.07539317 22.80465369 35.0625 26.5625 C35.041875 34.956875 35.02125 43.35125 35 52 C60.74 52 86.48 52 113 52 C113 34.84 113 17.68 113 0 C124.22 0 135.44 0 147 0 C147 41.58 147 83.16 147 126 C135.78 126 124.56 126 113 126 C113 107.85 113 89.7 113 71 C87.26 71 61.52 71 35 71 C35.03961033 88.72645554 35.03961033 88.72645554 35.09008789 106.45288086 C35.09300683 108.66520134 35.09555544 110.87752235 35.09765625 113.08984375 C35.10277222 114.25068481 35.10788818 115.41152588 35.11315918 116.60754395 C35.11334045 118.25188416 35.11334045 118.25188416 35.11352539 119.92944336 C35.115746 120.88652695 35.11796661 121.84361053 35.12025452 122.82969666 C35 125 35 125 34 126 C22.78 126 11.56 126 0 126 C0 84.42 0 42.84 0 0 Z " fill="#032B42" transform="translate(598,603)"/>
<path d="M0 0 C0.89306351 -0.00563965 1.78612701 -0.0112793 2.70625305 -0.01708984 C3.6783371 -0.01304138 4.65042114 -0.00899292 5.65196228 -0.00482178 C7.19642784 -0.01007874 7.19642784 -0.01007874 8.77209473 -0.01544189 C12.17735016 -0.02424837 15.58239807 -0.01841421 18.98765564 -0.01165771 C21.35129842 -0.01300457 23.71494093 -0.01494527 26.07858276 -0.01745605 C31.03243141 -0.02040577 35.98620795 -0.01611413 40.94004822 -0.0067749 C47.29802462 0.00462571 53.6558323 -0.00194475 60.01380253 -0.01391983 C64.89415769 -0.02113719 69.77447267 -0.01885117 74.65482903 -0.01366425 C76.9996537 -0.01232773 79.344482 -0.01397552 81.68930244 -0.01862335 C84.96211074 -0.02368716 88.23464333 -0.01598048 91.50743103 -0.00482178 C92.48153931 -0.00887024 93.45564758 -0.0129187 94.45927429 -0.01708984 C95.34951797 -0.0114502 96.23976166 -0.00581055 97.15698242 0 C97.93070222 0.00075405 98.70442202 0.0015081 99.50158787 0.002285 C101.51499939 0.25396729 101.51499939 0.25396729 104.51499939 2.25396729 C104.79070545 5.1711153 104.88725549 7.84264989 104.82749939 10.75396729 C104.83072205 11.53900635 104.8339447 12.32404541 104.83726501 13.13287354 C104.78203808 18.98692859 104.78203808 18.98692859 102.51499939 21.25396729 C99.90646558 21.43479183 97.40403738 21.49220573 94.79576111 21.46173096 C93.99877304 21.46053253 93.20178497 21.45933411 92.38064575 21.45809937 C90.64601858 21.45494404 88.91139523 21.44761917 87.17679977 21.43666649 C84.42708488 21.42184113 81.67785718 21.42340395 78.92811584 21.43031311 C71.10861558 21.44916365 63.28948821 21.45569593 55.47007751 21.4085083 C50.68877457 21.38084429 45.90853251 21.38730524 41.12724686 21.41552162 C39.30847295 21.41977157 37.48962197 21.41135366 35.67097092 21.38979149 C24.35389531 20.87791926 24.35389531 20.87791926 14.52330017 25.61846924 C13.48095513 26.79643222 12.47355678 28.00687159 11.51499939 29.25396729 C10.69585808 29.92821747 10.69585808 29.92821747 9.86016846 30.61608887 C7.87248972 33.03628733 8.07046863 34.99590732 7.98399353 38.09552002 C7.94548782 39.29784775 7.90698212 40.50017548 7.86730957 41.73893738 C7.83406837 43.69350609 7.83406837 43.69350609 7.80015564 45.68756104 C7.78792906 46.35385088 7.77570248 47.02014072 7.76310539 47.70662117 C7.70052854 51.24117336 7.65764334 54.77537773 7.62950134 58.31036377 C7.6030243 61.216928 7.54071958 64.11913733 7.44493103 67.02423096 C5.99061571 85.70487189 5.99061571 85.70487189 12.68296814 102.14849854 C21.76869124 110.10868268 37.39730348 107.78791607 48.68913269 107.54150391 C52.16873933 107.47858432 55.64820526 107.48464773 59.12828064 107.48443604 C65.92523382 107.47409064 72.71940022 107.38863061 79.51499939 107.25396729 C79.52530685 106.62978409 79.53561432 106.00560089 79.54623413 105.36250305 C79.65406472 98.89042176 79.76868086 92.41848635 79.88731384 85.94659424 C79.93073817 83.52833089 79.97240751 81.11003539 80.01231384 78.69171143 C80.06983542 75.22408333 80.13358126 71.75661826 80.19859314 68.28912354 C80.21530563 67.20059586 80.23201813 66.11206818 80.24923706 64.99055481 C80.26918228 63.98959274 80.2891275 62.98863068 80.30967712 61.95733643 C80.32522141 61.07131241 80.34076569 60.18528839 80.35678101 59.27241516 C80.51499939 57.25396729 80.51499939 57.25396729 81.51499939 56.25396729 C83.42958221 56.15424943 85.34782256 56.1231614 87.26499939 56.12115479 C88.43031189 56.11986572 89.59562439 56.11857666 90.79624939 56.11724854 C92.02343689 56.12111572 93.25062439 56.12498291 94.51499939 56.12896729 C96.35578064 56.1231665 96.35578064 56.1231665 98.23374939 56.11724854 C99.98171814 56.11918213 99.98171814 56.11918213 101.76499939 56.12115479 C102.84265564 56.12228271 103.92031189 56.12341064 105.03062439 56.12457275 C107.51499939 56.25396729 107.51499939 56.25396729 108.51499939 57.25396729 C108.61452232 59.39597052 108.64299618 61.54129433 108.64439392 63.68560791 C108.6470224 64.69291206 108.6470224 64.69291206 108.64970398 65.7205658 C108.65412169 67.95047556 108.65118481 70.18030665 108.64781189 72.41021729 C108.64848495 73.95338964 108.649455 75.49656189 108.65071106 77.03973389 C108.65218792 80.27798469 108.65003386 83.51620796 108.64537048 86.75445557 C108.63967319 90.91439251 108.64295226 95.07426495 108.64894295 99.23419952 C108.65254888 102.42196136 108.65140983 105.6097078 108.64881516 108.79747009 C108.64814597 110.33174141 108.648974 111.86601411 108.65129471 113.40028381 C108.65382177 115.54100269 108.64997993 117.68161571 108.64439392 119.82232666 C108.64359833 121.04286743 108.64280273 122.2634082 108.64198303 123.52093506 C108.51499939 126.25396729 108.51499939 126.25396729 107.51499939 127.25396729 C106.12944241 127.36451016 104.73836464 127.40686253 103.34848022 127.42132568 C102.4499382 127.43281647 101.55139618 127.44430725 100.62562561 127.45614624 C99.63190948 127.46354828 98.63819336 127.47095032 97.61436462 127.47857666 C96.57368332 127.48996674 95.53300201 127.50135681 94.46078491 127.51309204 C83.55304531 127.62387784 72.64461891 127.67120377 61.73643494 127.71392822 C56.55933949 127.7361939 51.38296595 127.7779443 46.2061615 127.8369751 C39.96092111 127.90805732 33.71635971 127.94476073 27.47073555 127.95704651 C25.09088452 127.96745037 22.71105414 127.98988199 20.33143425 128.02464294 C16.99395199 128.0708658 13.6591275 128.07284616 10.32139587 128.06451416 C9.34184937 128.08811005 8.36230286 128.11170593 7.35307312 128.13601685 C0.97580193 128.05915318 -2.24418622 126.60784853 -6.77311611 122.09851837 C-7.338038 121.48981651 -7.90295988 120.88111465 -8.48500061 120.25396729 C-9.64984087 119.08547706 -10.81624766 117.91854393 -11.98500061 116.75396729 C-12.54832092 116.18033447 -13.11164124 115.60670166 -13.69203186 115.01568604 C-16.22088466 112.5309091 -18.89446136 110.23041524 -21.59046936 107.92974854 C-22.21566467 107.37674072 -22.84085999 106.82373291 -23.48500061 106.25396729 C-24.17110916 105.7204213 -24.85721771 105.18687531 -25.56411743 104.63716125 C-28.19201835 101.37678722 -28.09781211 98.46438704 -28.11366272 94.44708252 C-28.13191605 93.66437485 -28.15016937 92.88166718 -28.16897583 92.07524109 C-28.22225643 89.48750726 -28.24468742 86.90076926 -28.26234436 84.31256104 C-28.28282823 82.50616792 -28.30346551 80.69977653 -28.32424927 78.89338684 C-28.36175023 75.10295715 -28.38113803 71.3128737 -28.39100647 67.52227783 C-28.40730938 62.68800857 -28.4928772 57.85767604 -28.59569454 53.02458096 C-28.66305447 49.28985897 -28.68035104 45.55606496 -28.68440437 41.82078743 C-28.69460059 40.04059144 -28.72288062 38.26039627 -28.77029228 36.48080254 C-29.1481291 21.14042802 -29.1481291 21.14042802 -23.68132114 15.24071598 C-21.39947376 13.08497919 -18.97694455 11.16023364 -16.48500061 9.25396729 C-14.99482286 7.91192717 -13.51303622 6.56037442 -12.04750061 5.19146729 C-8.24002385 1.82805909 -5.16249213 0.00502881 0 0 Z " fill="#083046" transform="translate(472.48500061035156,601.7460327148438)"/>
<path d="M0 0 C1.49192194 0.00138269 1.49192194 0.00138269 3.01398373 0.00279331 C4.15126919 0.00141865 5.28855465 0.00004398 6.46030331 -0.00137234 C7.71905773 0.00222294 8.97781216 0.00581821 10.27471066 0.00952244 C11.59158871 0.00937641 12.90846676 0.00923038 14.26525021 0.00907993 C17.88698982 0.00879196 21.5086966 0.01468859 25.13042855 0.02165389 C28.91142598 0.02788753 32.69242409 0.02849124 36.47342587 0.0296793 C43.63805004 0.03279258 50.80265904 0.04100594 57.96727651 0.05102879 C66.12191876 0.06219001 74.27656171 0.0677004 82.43120968 0.07272422 C99.21035132 0.08318855 115.9894767 0.10098839 132.76860714 0.12304783 C132.76860714 6.72304783 132.76860714 13.32304783 132.76860714 20.12304783 C117.85850616 27.57809832 99.43860681 21.12304783 82.76860714 21.12304783 C82.76860714 55.77304783 82.76860714 90.42304783 82.76860714 126.12304783 C71.21860714 126.12304783 59.66860714 126.12304783 47.76860714 126.12304783 C47.76860714 91.47304783 47.76860714 56.82304783 47.76860714 21.12304783 C31.92860714 21.12304783 16.08860714 21.12304783 -0.23139286 21.12304783 C-1.22139286 20.46304783 -2.21139286 19.80304783 -3.23139286 19.12304783 C-3.58783817 17.25952244 -3.58783817 17.25952244 -3.55951786 15.02539158 C-3.55436161 14.22423923 -3.54920536 13.42308689 -3.54389286 12.5976572 C-3.52326786 11.76041111 -3.50264286 10.92316502 -3.48139286 10.06054783 C-3.47623661 9.21943455 -3.47108036 8.37832127 -3.46576786 7.5117197 C-3.37131742 0.18590778 -3.37131742 0.18590778 0 0 Z " fill="#052D43" transform="translate(760.2313928604126,602.8769521713257)"/>
<path d="M0 0 C11.55 0 23.1 0 35 0 C35 41.58 35 83.16 35 126 C23.45 126 11.9 126 0 126 C0 84.42 0 42.84 0 0 Z " fill="#022A41" transform="translate(391,603)"/>
<path d="M0 0 C0.66 0.33 1.32 0.66 2 1 C-0.80530847 3.8546576 -3.61707696 6.70277231 -6.43505859 9.54492188 C-7.39324956 10.51318538 -8.34963982 11.48323426 -9.30419922 12.45507812 C-10.6746382 13.8497097 -12.05206367 15.23746521 -13.4296875 16.625 C-14.25710449 17.46289062 -15.08452148 18.30078125 -15.93701172 19.1640625 C-18 21 -18 21 -20 21 C-16.46003707 12.74629697 -7.68021782 6.72590099 -1 1 C-0.67 0.67 -0.34 0.34 0 0 Z " fill="#637C8A" transform="translate(465,603)"/>
<path d="M0 0 C0.66 0.33 1.32 0.66 2 1 C-0.31 3.31 -2.62 5.62 -5 8 C-5 5 -5 5 -2.5 2.3125 C-1.675 1.549375 -0.85 0.78625 0 0 Z " fill="#758B98" transform="translate(106,161)"/>
<path d="M0 0 C0.66 0.33 1.32 0.66 2 1 C-0.31 3.31 -2.62 5.62 -5 8 C-5 5 -5 5 -2.5 2.3125 C-1.675 1.549375 -0.85 0.78625 0 0 Z " fill="#6E8592" transform="translate(459,5)"/>
</svg>
